<svg xmlns="http://www.w3.org/2000/svg" xmlns:xlink="http://www.w3.org/1999/xlink" width="512" zoomAndPan="magnify" viewBox="0 0 384 383.999986" height="512" preserveAspectRatio="xMidYMid meet" version="1.0"><defs><clipPath id="762e72bb8b"><path d="M 51 53 L 332 53 L 332 334 L 51 334 Z M 51 53 " clip-rule="nonzero"/></clipPath><clipPath id="86387c1099"><path d="M 43.691406 44.925781 L 339.9375 45.441406 L 339.421875 341.691406 L 43.171875 341.175781 Z M 43.691406 44.925781 " clip-rule="nonzero"/></clipPath><clipPath id="d9d3cbd68f"><path d="M 43.691406 44.925781 L 339.9375 45.441406 L 339.421875 341.691406 L 43.171875 341.175781 Z M 43.691406 44.925781 " clip-rule="nonzero"/></clipPath><clipPath id="4ec0b451b7"><path d="M 79.324219 79.324219 L 304.324219 79.324219 L 304.324219 304.324219 L 79.324219 304.324219 Z M 79.324219 79.324219 " clip-rule="nonzero"/></clipPath><clipPath id="45e1960002"><path d="M 79.324219 128.074219 L 79.324219 255.925781 C 79.324219 282.851562 101.148438 304.675781 128.074219 304.675781 L 255.925781 304.675781 C 282.851562 304.675781 304.675781 282.851562 304.675781 255.925781 L 304.675781 128.074219 C 304.675781 101.148438 282.851562 79.324219 255.925781 79.324219 L 128.074219 79.324219 C 101.148438 79.324219 79.324219 101.148438 79.324219 128.074219 Z M 79.324219 128.074219 " clip-rule="nonzero"/></clipPath></defs><g clip-path="url(#762e72bb8b)"><g clip-path="url(#86387c1099)"><g clip-path="url(#d9d3cbd68f)"><path stroke-linecap="butt" transform="matrix(0.740624, 0.00129263, -0.00129263, 0.740624, 43.689517, 44.924497)" fill="none" stroke-linejoin="miter" d="M 85.002117 45.00113 L 315.002492 45.000548 C 316.310507 44.998265 317.618642 45.064547 318.921613 45.19413 C 320.224574 45.318438 321.517107 45.51133 322.804476 45.767523 C 324.086571 46.023724 325.358228 46.343235 326.608889 46.7208 C 327.864834 47.10363 329.094508 47.544522 330.308461 48.043459 C 331.517149 48.547679 332.699558 49.104688 333.855705 49.725034 C 335.011844 50.340106 336.131164 51.013259 337.224205 51.739201 C 338.311981 52.470426 339.36292 53.249183 340.377031 54.080748 C 341.385868 54.912322 342.357868 55.791429 343.282483 56.718087 C 344.212363 57.639461 345.089592 58.61367 345.919417 59.624881 C 346.749242 60.636093 347.531673 61.689581 348.256142 62.774817 C 348.985895 63.865317 349.657686 64.987564 350.27679 66.141549 C 350.895902 67.300808 351.451761 68.481274 351.954933 69.693478 C 352.458095 70.900408 352.898012 72.133819 353.279949 73.388429 C 353.656612 74.643048 353.975286 75.913591 354.230687 77.194792 C 354.486097 78.481269 354.678225 79.77313 354.80709 81.080924 C 354.935946 82.383443 355.00152 83.691348 354.998529 84.999372 L 354.999111 314.999747 C 355.001394 316.307762 354.935112 317.615897 354.805529 318.918868 C 354.681221 320.22183 354.488338 321.519637 354.232136 322.801731 C 353.975944 324.089101 353.656424 325.355483 353.278868 326.611418 C 352.896039 327.867363 352.455146 329.097037 351.9562 330.305716 C 351.451989 331.519678 350.89498 332.702087 350.274634 333.858235 C 349.659553 335.009099 348.986409 336.133694 348.260458 337.22146 C 347.529242 338.31451 346.750485 339.365449 345.918911 340.374286 C 345.087346 341.388398 344.208239 342.360398 343.286856 343.285003 C 342.360198 344.209618 341.385989 345.086847 340.374787 345.921946 C 339.363575 346.751772 338.310077 347.528928 337.224851 348.258672 C 336.134351 348.988424 335.012104 349.660215 333.858119 350.279319 C 332.698851 350.893158 331.518394 351.45429 330.30619 351.957462 C 329.099251 352.45535 327.86584 352.895267 326.61123 353.277204 C 325.35662 353.659141 324.086078 353.977815 322.804876 354.233216 C 321.518399 354.488626 320.226539 354.680755 318.918744 354.80962 C 317.616215 354.933201 316.308311 354.998775 315.000296 355.001058 L 84.999921 355.001641 C 83.691897 354.998649 82.383771 354.937641 81.0808 354.808058 C 79.777829 354.678476 78.480022 354.485593 77.197927 354.229391 C 75.910558 353.973199 74.644185 353.658953 73.388241 353.276123 C 72.13758 352.898559 70.902631 352.457675 69.693943 351.953455 C 68.47999 351.454518 67.297572 350.892235 66.146708 350.277154 C 64.99056 349.656808 63.865974 348.988938 62.778199 348.257713 C 61.690432 347.531763 60.639493 346.753005 59.625382 345.92144 C 58.61127 345.089875 57.644545 344.210759 56.714656 343.284111 C 55.790041 342.357453 54.912821 341.388518 54.077722 340.377316 C 53.247887 339.36083 52.47074 338.312607 51.740987 337.222106 C 51.011235 336.131606 50.339444 335.009359 49.725614 333.855365 C 49.106511 332.701381 48.545368 331.515649 48.042206 330.30872 C 47.544309 329.096506 47.104392 327.863095 46.722464 326.61376 C 46.340527 325.35915 46.021853 324.088607 45.766443 322.802131 C 45.511042 321.520929 45.318904 320.223794 45.190048 318.921274 C 45.066467 317.618745 45.000893 316.31084 44.998601 314.997551 L 44.998028 85.00245 C 45.00101 83.689152 45.062018 82.381026 45.1916 81.078055 C 45.321183 79.775084 45.514075 78.482552 45.770268 77.195182 C 46.026469 75.913088 46.340706 74.64144 46.723545 73.39077 C 47.1011 72.134835 47.541993 70.90516 48.046204 69.691198 C 48.54515 68.482519 49.107433 67.300101 49.722505 66.143963 C 50.342851 64.987815 51.016004 63.868495 51.741946 62.775454 C 52.467896 61.687687 53.246654 60.636748 54.078219 59.622637 C 54.909793 58.6138 55.788899 57.6418 56.715557 56.717185 C 57.642206 55.787296 58.611141 54.910076 59.622352 54.080251 C 60.638838 53.250416 61.687052 52.467995 62.777562 51.743517 C 63.868062 51.013764 64.990309 50.341973 66.144294 49.722869 C 67.298278 49.103766 68.484019 48.547898 69.690949 48.044736 C 70.903153 47.541564 72.136564 47.101647 73.391183 46.724984 C 74.640518 46.343056 75.911061 46.024382 77.197537 45.768972 C 78.478739 45.513571 79.775874 45.321433 81.078394 45.192578 C 82.380914 45.063722 83.688819 44.998148 85.002117 45.00113 Z M 85.002117 45.00113 " stroke="#ffffff" stroke-width="6" stroke-opacity="1" stroke-miterlimit="4"/></g></g></g><g clip-path="url(#4ec0b451b7)"><g clip-path="url(#45e1960002)"><path fill="#000000" d="M 79.324219 79.324219 L 304.324219 79.324219 L 304.324219 304.324219 L 79.324219 304.324219 Z M 79.324219 79.324219 " fill-opacity="1" fill-rule="nonzero"/></g></g><path stroke-linecap="butt" transform="matrix(0, 0.75, -0.75, 0, 132.176862, 119.490226)" fill="none" stroke-linejoin="miter" d="M -0.00259265 7.501442 L 193.367214 7.501442 " stroke="#cb8bf8" stroke-width="15" stroke-opacity="1" stroke-miterlimit="4"/><path stroke-linecap="butt" transform="matrix(0, 0.75, -0.75, 0, 174.543056, 119.490226)" fill="none" stroke-linejoin="miter" d="M -0.00259265 7.500117 L 193.367214 7.500117 " stroke="#cb8bf8" stroke-width="15" stroke-opacity="1" stroke-miterlimit="4"/><path stroke-linecap="butt" transform="matrix(0, 0.75, -0.75, 0, 216.909247, 119.490226)" fill="none" stroke-linejoin="miter" d="M -0.00259265 7.498788 L 193.367214 7.498788 " stroke="#cb8bf8" stroke-width="15" stroke-opacity="1" stroke-miterlimit="4"/><path stroke-linecap="butt" transform="matrix(0, 0.75, -0.75, 0, 259.327691, 119.490226)" fill="none" stroke-linejoin="miter" d="M -0.00259265 7.499421 L 193.367214 7.499421 " stroke="#cb8bf8" stroke-width="15" stroke-opacity="1" stroke-miterlimit="4"/><path stroke-linecap="butt" transform="matrix(0.570848, -0.486449, 0.486449, 0.570848, 107.55818, 255.037098)" fill="none" stroke-linejoin="miter" d="M -0.00111156 7.502301 L 279.655062 7.501175 " stroke="#cb8bf8" stroke-width="15" stroke-opacity="1" stroke-miterlimit="4"/></svg>